HIERARCHY
ROOT Hips
{
	OFFSET 0.000000 0.000000 0.000000
	CHANNELS 6 Xposition Yposition Zposition Xrotation Yrotation Zrotation
	JOINT LeftUpLeg_virtual
	{
		OFFSET 0.000000 0.000000 0.000000
		CHANNELS 3 Xrotation Yrotation Zrotation
		JOINT LeftUpLeg
		{
			OFFSET 10.205400 -3.823500 0.155100
			CHANNELS 3 Xrotation Yrotation Zrotation
			JOINT LeftLeg
			{
				OFFSET 0.708757 -12.982077 0.567790
				CHANNELS 3 Xrotation Yrotation Zrotation
				JOINT LeftFoot
				{
					OFFSET -0.708756 -10.717838 -2.184338
					CHANNELS 3 Xrotation Yrotation Zrotation
					JOINT LeftToeBase
					{
						OFFSET 0.108149 -7.191104 7.560241
						CHANNELS 3 Xrotation Yrotation Zrotation
						JOINT LeftToe_End
						{
							OFFSET 0.070230 0.081724 4.490308
							CHANNELS 3 Xrotation Yrotation Zrotation
							End Site
							{
								OFFSET 0 0 0
							}
						}
					}
				}
			}
		}
	}
	JOINT RightUpLeg_virtual
	{
		OFFSET 0.000000 0.000000 0.000000
		CHANNELS 3 Xrotation Yrotation Zrotation
		JOINT RightUpLeg
		{
			OFFSET -10.205400 -3.823500 0.005500
			CHANNELS 3 Xrotation Yrotation Zrotation
			JOINT RightLeg
			{
				OFFSET -0.708756 -12.982134 0.610632
				CHANNELS 3 Xrotation Yrotation Zrotation
				JOINT RightFoot
				{
					OFFSET 0.708754 -10.717769 -1.945823
					CHANNELS 3 Xrotation Yrotation Zrotation
					JOINT RightToeBase
					{
						OFFSET -0.108140 -7.191069 7.372968
						CHANNELS 3 Xrotation Yrotation Zrotation
						JOINT RightToe_End
						{
							OFFSET -0.070227 0.081735 4.479403
							CHANNELS 3 Xrotation Yrotation Zrotation
							End Site
							{
								OFFSET 0 0 0
							}
						}
					}
				}
			}
		}
	}
	JOINT Spine_virtual
	{
		OFFSET 0.000000 0.000000 0.000000
		CHANNELS 3 Xrotation Yrotation Zrotation
		JOINT Spine
		{
			OFFSET 0.000000 6.876099 0.125700
			CHANNELS 3 Xrotation Yrotation Zrotation
			JOINT Spine1
			{
				OFFSET 0.000000 5.730043 0.104720
				CHANNELS 3 Xrotation Yrotation Zrotation
				JOINT Spine1_split
				{
					OFFSET 0.000000 5.730043 0.104720
					CHANNELS 3 Xrotation Yrotation Zrotation
					JOINT Spine2
					{
						OFFSET 0.000000 5.730043 0.104720
						CHANNELS 3 Xrotation Yrotation Zrotation
						JOINT Neck_virtual
						{
							OFFSET 0.000000 0.000000 0.000000
							CHANNELS 3 Xrotation Yrotation Zrotation
							JOINT Neck
							{
								OFFSET 0.000000 10.314075 0.188496
								CHANNELS 3 Xrotation Yrotation Zrotation
								JOINT Head
								{
									OFFSET 0.000000 7.643700 -2.377400
									CHANNELS 3 Xrotation Yrotation Zrotation
									JOINT HeadTop_End
									{
										OFFSET 0.000000 43.788605 -13.619600
										CHANNELS 3 Xrotation Yrotation Zrotation
										End Site
										{
											OFFSET 0 0 0
										}
									}
								}
							}
						}
						JOINT LeftShoulder_virtual
						{
							OFFSET 0.000000 0.000000 0.000000
							CHANNELS 3 Xrotation Yrotation Zrotation
							JOINT LeftShoulder
							{
								OFFSET 2.196100 4.412489 0.087492
								CHANNELS 3 Xrotation Yrotation Zrotation
								JOINT LeftShoulder_split
								{
									OFFSET 2.196100 4.412489 0.087492
									CHANNELS 3 Xrotation Yrotation Zrotation
									JOINT LeftArm
									{
										OFFSET 8.771219 -2.981674 -0.026999
										CHANNELS 3 Xrotation Yrotation Zrotation
										JOINT LeftForeArm
										{
											OFFSET 8.512804 0.000000 -0.000000
											CHANNELS 3 Xrotation Yrotation Zrotation
											JOINT LeftHand
											{
												OFFSET 18.484802 0.000000 -0.000000
												CHANNELS 3 Xrotation Yrotation Zrotation
												End Site
												{
													OFFSET 0 0 0
												}
											}
										}
									}
								}
							}
						}
						JOINT RightShoulder_virtual
						{
							OFFSET 0.000000 0.000000 0.000000
							CHANNELS 3 Xrotation Yrotation Zrotation
							JOINT RightShoulder
							{
								OFFSET -2.196100 4.412496 0.070690
								CHANNELS 3 Xrotation Yrotation Zrotation
								JOINT RightShoulder_split
								{
									OFFSET -2.196100 4.412496 0.070690
									CHANNELS 3 Xrotation Yrotation Zrotation
									JOINT RightArm
									{
										OFFSET -8.771282 -2.981682 -0.094208
										CHANNELS 3 Xrotation Yrotation Zrotation
										JOINT RightForeArm
										{
											OFFSET -8.494598 0.000000 0.000000
											CHANNELS 3 Xrotation Yrotation Zrotation
											JOINT RightHand
											{
												OFFSET -18.483803 0.000000 0.000001
												CHANNELS 3 Xrotation Yrotation Zrotation
												End Site
												{
													OFFSET 0 0 0
												}
											}
										}
									}
								}
							}
						}
					}
				}
			}
		}
	}
}
MOTION
Frames: 8
Frame Time: 0.03333333
-0.710720 28.191929 0.054728 0.000000 0.000000 0.000000 -8.118689 -62.672416 -3.863116 -23.271170 6.019149 31.264634 42.898489 -9.166367 -5.803356 -18.919706 -3.854857 -12.926556 -3.364707 -0.178410 0.027193 0.000000 0.000000 0.000000 -10.259315 -58.490571 -3.727958 -16.737549 -15.210865 -27.974730 43.023068 7.036483 -8.220051 -26.482810 1.498090 22.570772 -10.322742 1.509766 -0.592532 0.000000 0.000000 0.000000 -8.333977 -61.333480 -3.515324 9.642255 -1.781287 -0.684900 5.148133 -0.279915 -5.025984 1.694410 -10.100019 2.066474 0.000000 0.000000 0.000000 6.769724 0.241775 -4.324968 8.744922 21.409190 10.474346 12.785786 28.413633 -18.221309 0.000000 0.000000 0.000000 5.295428 -0.218109 -3.707973 -9.616679 -7.706020 -6.823666 1.050521 -3.278536 -2.078781 -18.567260 23.750234 -24.803364 11.971032 -44.410853 3.879363 0.000000 0.000000 0.000000 3.137363 -1.049085 -4.084109 -9.888475 2.386226 7.653158 -4.379597 1.150453 3.125326 -45.129297 -17.171048 42.513211 175.962352 65.486406 -161.050041 0.000000 0.000000 0.000000 
-0.926934 28.462955 0.545753 0.000000 0.000000 0.000000 -8.958568 -62.004239 -4.413429 -22.315247 6.838332 30.390346 42.138763 -9.148856 -5.351764 -18.527930 -4.021747 -12.256004 -3.376637 -0.191310 0.379261 0.000000 0.000000 0.000000 -11.104450 -58.168179 -4.366477 -15.409603 -15.158671 -28.291479 42.121995 6.957538 -8.054705 -25.393136 1.146183 25.936976 -13.023987 1.651869 -1.378247 0.000000 0.000000 0.000000 -10.128023 -60.808143 -4.649376 9.002529 -2.171207 -0.127877 4.766458 -0.450339 -4.451331 0.357122 -9.095470 1.657602 0.000000 0.000000 0.000000 5.786553 0.060097 -3.822071 9.952305 20.871882 10.606366 12.688739 27.639682 -17.184071 0.000000 0.000000 0.000000 4.760137 -0.401439 -3.415417 -9.449679 -7.859745 -8.089446 1.599542 -2.739644 -3.327103 -18.584752 22.260309 -27.129600 14.165719 -47.680861 5.885665 0.000000 0.000000 0.000000 3.015293 -1.111555 -3.652989 -10.056686 1.352717 9.138450 -3.723016 0.435786 1.873402 -41.325018 -15.890814 38.849778 173.224485 66.653193 -157.754557 0.000000 0.000000 0.000000 
-1.262325 29.004370 1.067923 0.000000 0.000000 0.000000 -10.171403 -59.630202 -5.191834 -20.021829 7.623571 27.654104 39.588955 -8.557587 -4.024873 -17.803218 -3.445311 -12.400261 -3.342390 -0.055397 0.536226 0.000000 0.000000 0.000000 -11.838555 -56.187677 -5.026026 -11.237282 -16.581995 -28.362900 38.864975 5.754186 -7.573090 -25.070341 0.333693 27.850979 -11.919016 2.047942 -2.324086 0.000000 0.000000 0.000000 -11.407837 -58.940899 -5.579444 7.732167 -2.702640 0.795650 3.831268 -0.735562 -2.967560 -0.299377 -6.906147 1.188107 0.000000 0.000000 0.000000 4.061687 -0.252314 -2.313686 10.374479 19.413926 11.335455 13.843323 24.805784 -16.334114 0.000000 0.000000 0.000000 3.557859 -0.587925 -2.052344 -9.372360 -7.263965 -10.027098 1.313173 -1.570220 -4.476500 -16.266854 19.544163 -30.559499 18.636301 -53.190013 9.613937 0.000000 0.000000 0.000000 2.151695 -1.309789 -2.294199 -9.700784 0.074888 11.161177 -3.466577 1.466569 0.852847 -37.347867 -19.662901 29.319803 -175.207166 61.069193 -167.956797 0.000000 0.000000 0.000000 
-1.635146 29.653969 1.591396 0.000000 0.000000 0.000000 -11.672867 -56.441576 -6.105299 -16.683610 7.979222 23.432012 36.000387 -7.572907 -2.034507 -17.043291 -2.162798 -13.184960 -3.384905 0.231631 0.319581 0.000000 0.000000 0.000000 -12.326541 -52.883880 -5.446074 -5.248480 -19.121842 -28.197736 34.605317 3.364991 -6.874067 -24.520567 -0.908302 28.143641 -8.943177 2.561110 -2.906943 0.000000 0.000000 0.000000 -12.253011 -55.801754 -6.294863 6.284983 -3.209675 1.814346 2.547246 -0.949361 -0.938818 -0.176133 -4.629956 0.835928 0.000000 0.000000 0.000000 1.919308 -0.538214 -0.198231 9.381383 17.405514 12.762473 15.727264 20.662844 -15.836070 0.000000 0.000000 0.000000 1.860420 -0.680238 0.026298 -9.395604 -6.057273 -12.030783 0.686340 0.007924 -4.918037 -12.082661 16.381256 -33.540959 25.869514 -59.430576 15.671032 0.000000 0.000000 0.000000 0.684236 -1.545080 -0.370332 -8.902363 -1.100512 13.367709 -3.106659 3.756053 0.487246 -35.076372 -28.527914 16.842347 -162.625465 50.321333 -178.674812 0.000000 0.000000 0.000000 
-2.038630 30.281761 2.271418 0.000000 0.000000 0.000000 -13.249120 -52.781345 -6.874387 -13.022935 7.541958 18.298799 32.501527 -6.581526 0.382920 -16.285369 -0.499450 -14.370648 -3.684875 0.667018 -0.293308 0.000000 0.000000 0.000000 -12.724473 -48.799069 -5.640253 1.381551 -21.962478 -27.784629 30.508324 0.562241 -6.204633 -22.833847 -2.429936 27.955047 -8.138720 2.863338 -2.391265 0.000000 0.000000 0.000000 -12.894639 -51.725279 -6.772644 5.018335 -3.487722 2.674129 1.109854 -1.026329 1.237957 -0.143346 -2.866428 0.579318 0.000000 0.000000 0.000000 -0.254208 -0.701646 2.009273 6.394437 15.084732 14.723294 17.545455 16.219165 -15.841934 0.000000 0.000000 0.000000 -0.046018 -0.640261 2.326824 -9.495775 -4.663041 -13.553311 0.399802 1.035746 -5.064534 -7.200446 13.429544 -34.971289 35.617896 -64.526559 24.088928 0.000000 0.000000 0.000000 -1.173726 -1.665267 1.717050 -7.982928 -2.024759 15.603152 -2.173355 7.343188 0.480354 -37.978495 -39.822346 3.216087 -153.319565 39.117125 174.094582 0.000000 0.000000 0.000000 
-2.343696 30.786903 2.979788 0.000000 0.000000 0.000000 -14.756310 -49.063363 -7.344041 -9.982232 5.999952 13.121150 30.342204 -5.920647 2.898376 -15.502023 1.031296 -15.602121 -4.271690 1.189877 -1.124562 0.000000 0.000000 0.000000 -13.396346 -44.640709 -5.754558 7.751666 -24.212963 -27.160307 27.227490 -1.935671 -5.952462 -19.772943 -3.911916 28.108534 -10.988288 2.557723 -0.235559 0.000000 0.000000 0.000000 -13.542039 -47.127373 -7.010419 4.157806 -3.448627 3.194588 -0.304917 -0.912981 3.105550 -0.437023 -2.242252 0.442576 0.000000 0.000000 0.000000 -2.034359 -0.629967 3.889895 1.236311 12.713062 16.770303 18.650354 12.637940 -16.759522 0.000000 0.000000 0.000000 -1.778415 -0.488967 4.369516 -9.680214 -3.639821 -14.375214 0.759746 1.835366 -4.822313 -3.043074 11.354210 -34.500853 44.642267 -66.453178 31.686665 0.000000 0.000000 0.000000 -3.106124 -1.603035 3.618592 -7.185858 -2.540210 17.758705 -2.292662 9.935790 1.361453 -46.956731 -50.253636 -9.993357 -145.197869 31.751804 167.866939 0.000000 0.000000 0.000000 
-2.464410 31.187893 3.716242 0.000000 0.000000 0.000000 -16.008661 -45.410035 -7.462111 -7.964802 3.707320 8.399863 29.967520 -5.546090 5.130339 -14.647382 2.175179 -16.211550 -4.861615 1.746422 -2.043540 0.000000 0.000000 0.000000 -14.139274 -40.538979 -5.620469 13.595801 -25.297668 -26.245118 24.945584 -4.016696 -6.264455 -15.858053 -5.226767 28.045774 -15.467641 1.121228 3.680465 0.000000 0.000000 0.000000 -14.184180 -42.474020 -6.944362 3.716148 -3.150787 3.366876 -1.467783 -0.628735 4.454142 -0.580675 -2.490223 0.400292 0.000000 0.000000 0.000000 -3.239493 -0.366950 5.232460 -5.575217 10.516723 18.746509 19.155795 10.675253 -18.736223 0.000000 0.000000 0.000000 -3.066079 -0.260880 5.836464 -9.929194 -3.216205 -14.423304 1.394657 2.188326 -3.876336 -0.578350 10.111359 -32.592717 48.811718 -64.917198 34.350415 0.000000 0.000000 0.000000 -4.675743 -1.358108 5.009897 -6.600554 -2.607984 19.585110 -3.865004 9.895459 2.309634 -60.689434 -57.556112 -21.590096 -136.010144 29.381640 160.058148 0.000000 0.000000 0.000000 
-2.423210 31.498344 4.583213 0.000000 0.000000 0.000000 -16.645238 -41.817690 -7.120487 -7.028354 1.164473 4.380062 30.979300 -5.435823 6.880460 -13.683639 2.769099 -15.988395 -5.426881 2.300364 -2.839783 0.000000 0.000000 0.000000 -14.825072 -36.768602 -5.273062 18.285352 -25.104837 -25.243913 23.859577 -5.676976 -6.922760 -11.705626 -6.486428 27.424366 -19.418936 -1.659840 8.882868 0.000000 0.000000 0.000000 -14.601507 -38.341055 -6.580093 3.524635 -2.729090 3.272187 -2.221771 -0.377213 5.231513 -0.106121 -3.059659 0.685918 0.000000 0.000000 0.000000 -3.817949 -0.086313 5.991521 -13.240720 8.651104 20.397399 19.207134 10.699743 -21.551393 0.000000 0.000000 0.000000 -3.703142 -0.076269 6.595299 -10.139149 -3.433468 -13.839193 1.963761 2.401410 -2.857024 -0.695293 8.847104 -30.259497 46.581460 -59.814193 30.529224 0.000000 0.000000 0.000000 -5.565927 -0.999496 5.839714 -6.447390 -2.182833 20.880884 -4.545125 8.831298 2.458712 -74.518464 -60.595389 -27.763409 -123.956226 31.094853 148.392622 0.000000 0.000000 0.000000 
